<svg viewBox="0 0 259 159" fill="none">
<path d="M225.646 92.4522C225.521 92.4522 225.407 92.482 225.284 92.482C227.576 87.1739 228.861 81.3305 228.861 75.1897C228.861 51.0876 209.325 31.5649 185.227 31.5649C176.71 31.5649 168.79 34.0331 162.074 38.2558C152.989 16.1758 131.287 0.608418 105.93 0.608418C72.3992 0.608418 45.2192 27.8032 45.2192 61.3321C45.2192 63.8598 45.4244 66.3429 45.7262 68.7962C45.5552 68.7962 45.3902 68.7664 45.2192 68.7664C22.7392 68.7664 4.51392 86.9954 4.51392 109.475C4.51392 131.955 22.7392 150.18 45.2192 150.18H225.646C241.59 150.18 254.514 137.256 254.514 121.312C254.514 105.37 241.59 92.4522 225.646 92.4522Z" fill="white"/>
</svg>
