<svg viewBox="0 0 251 137" fill="none">
<path d="M230.832 63.0539C230.748 63.0539 230.669 63.0783 230.585 63.0783C232.143 59.4838 233.016 55.5115 233.016 51.3322C233.016 34.956 219.739 21.6747 203.36 21.6747C197.572 21.6747 192.187 23.3562 187.623 26.2318C181.449 11.2203 166.697 0.644046 149.464 0.644046C126.675 0.644046 108.201 19.116 108.201 41.9135C108.201 43.6315 108.34 45.313 108.545 46.9823C108.429 46.9823 108.317 46.9701 108.201 46.9701C92.9215 46.9701 80.5345 59.3497 80.5345 74.6293C80.5345 89.9089 92.9215 102.301 108.201 102.301H230.832C241.669 102.301 250.453 93.5155 250.453 82.6833C250.453 71.839 241.669 63.0539 230.832 63.0539" fill="#C2D9F2"/>
<path d="M181.667 88.873C181.565 88.873 181.471 88.8974 181.369 88.8974C183.247 84.5475 184.301 79.7589 184.301 74.7267C184.301 54.9753 168.292 38.9768 148.544 38.9768C141.565 38.9768 135.074 40.9995 129.57 44.4599C122.126 26.3657 104.341 13.6085 83.5612 13.6085C56.0848 13.6085 33.81 35.8942 33.81 63.3705C33.81 65.4419 33.9781 67.4768 34.2254 69.4873C34.0853 69.4873 33.9501 69.4629 33.81 69.4629C15.388 69.4629 0.453247 84.4013 0.453247 102.823C0.453247 121.245 15.388 136.18 33.81 136.18H181.667C194.733 136.18 205.325 125.589 205.325 112.523C205.325 99.4591 194.733 88.873 181.667 88.873" fill="white"/>
</svg>
