<svg viewBox="0 0 250 213" fill="none">
<path d="M195.092 92.4572C202.077 92.4572 208.658 90.679 214.4 87.5402C204.898 97.7802 191.316 104.174 176.259 104.174C147.503 104.174 124.188 80.8567 124.188 52.1022C124.188 23.3462 147.503 0.0322222 176.259 0.0322222C191.316 0.0322222 204.898 6.42572 214.4 16.6643C208.658 13.527 202.077 11.7472 195.092 11.7472C172.801 11.7472 154.737 29.8126 154.737 52.1022C154.737 74.3918 172.801 92.4572 195.092 92.4572" fill="#FBDB60"/>
<path d="M221.131 155.042C221.006 155.042 220.893 155.077 220.768 155.078C223.061 149.774 224.346 143.932 224.346 137.787C224.346 113.69 204.81 94.1552 180.712 94.1552C172.195 94.1552 164.275 96.6338 157.559 100.851C148.474 78.7721 126.772 63.2135 101.415 63.2135C67.8858 63.2135 40.7059 90.3934 40.7059 123.924C40.7059 126.457 40.9096 128.94 41.2114 131.392C41.0404 131.391 40.8754 131.367 40.7059 131.367C18.2245 131.367 0 149.591 0 172.073C0 194.553 18.2245 212.777 40.7059 212.777H221.131C237.075 212.777 250 199.852 250 183.91C250 167.966 237.075 155.042 221.131 155.042" fill="white"/>
</svg>
