<svg viewBox="0 0 251 184" fill="none">
<path d="M112.017 79.3417C112.017 97.0391 97.6681 111.387 79.9682 111.387C62.2684 111.387 47.9196 97.0391 47.9196 79.3417C47.9196 61.6443 62.2684 47.2967 79.9682 47.2967C97.6681 47.2967 112.017 61.6443 112.017 79.3417" fill="#FBDB60"/>
<path d="M79.9683 35.1166C77.8463 35.1166 76.1259 33.3925 76.1259 31.2742V3.94605C76.1259 1.81547 77.8463 0.103589 79.9683 0.103589C82.0902 0.103589 83.8095 1.81547 83.8095 3.94605V31.2742C83.8095 33.3925 82.0902 35.1166 79.9683 35.1166Z" fill="#FBDB60"/>
<path d="M79.9683 158.582C77.8463 158.582 76.1259 156.863 76.1259 154.741V127.409C76.1259 125.279 77.8463 123.567 79.9683 123.567C82.0902 123.567 83.8095 125.279 83.8095 127.409V154.741C83.8095 156.863 82.0902 158.582 79.9683 158.582Z" fill="#FBDB60"/>
<path d="M111.24 48.0727C109.74 46.5702 109.74 44.1317 111.24 42.6292L130.568 23.3062C132.068 21.8037 134.5 21.8037 136 23.3062C137.501 24.8087 137.501 27.2348 136 28.7373L116.673 48.0727C115.173 49.5629 112.74 49.5629 111.24 48.0727" fill="#FBDB60"/>
<path d="M23.9351 135.377C22.4351 133.875 22.4351 131.436 23.9351 129.946L43.2631 110.611C44.7631 109.108 47.1954 109.108 48.6967 110.611C50.1967 112.113 50.1967 114.552 48.6967 116.042L29.3687 135.377C27.8687 136.868 25.4351 136.868 23.9351 135.377Z" fill="#FBDB60"/>
<path d="M124.193 79.3419C124.193 77.2236 125.913 75.4994 128.035 75.4994H155.369C157.49 75.4994 159.21 77.2236 159.21 79.3419C159.21 81.4601 157.49 83.1843 155.369 83.1843H128.035C125.913 83.1843 124.193 81.4601 124.193 79.3419Z" fill="#FBDB60"/>
<path d="M0.725342 79.3419C0.725342 77.2236 2.44581 75.4994 4.56778 75.4994H31.9009C34.0228 75.4994 35.7433 77.2236 35.7433 79.3419C35.7433 81.4601 34.0228 83.1843 31.9009 83.1843H4.56778C2.44581 83.1843 0.725342 81.4601 0.725342 79.3419Z" fill="#FBDB60"/>
<path d="M111.24 110.611C112.74 109.108 115.173 109.108 116.673 110.611L136 129.946C137.501 131.436 137.501 133.875 136 135.377C134.5 136.868 132.068 136.868 130.568 135.377L111.24 116.042C109.74 114.552 109.74 112.113 111.24 110.611" fill="#FBDB60"/>
<path d="M23.9351 23.3062C25.4351 21.8037 27.8687 21.8037 29.3687 23.3062L48.6967 42.6292C50.1967 44.1317 50.1967 46.5702 48.6967 48.0727C47.1954 49.5629 44.7631 49.5629 43.2631 48.0727L23.9351 28.7373C22.4351 27.2348 22.4351 24.8087 23.9351 23.3062Z" fill="#FBDB60"/>
<path d="M226.815 135.365C226.711 135.365 226.616 135.39 226.513 135.39C228.412 130.993 229.476 126.153 229.476 121.067C229.476 101.103 213.295 84.9329 193.336 84.9329C186.282 84.9329 179.72 86.9773 174.158 90.4749C166.634 72.1863 148.658 59.2921 127.654 59.2921C99.8824 59.2921 77.3696 81.8171 77.3696 109.589C77.3696 111.682 77.5396 113.739 77.7884 115.771C77.648 115.771 77.5112 115.746 77.3696 115.746C58.7485 115.746 43.6534 130.845 43.6534 149.465C43.6534 168.085 58.7485 183.18 77.3696 183.18H226.815C240.021 183.18 250.725 172.475 250.725 159.269C250.725 146.065 240.021 135.365 226.815 135.365Z" fill="white"/>
</svg>
