<svg viewBox="0 0 597 556" fill="none">

<path d="M509.532 507.253C392.969 571.821 203.983 571.823 87.4224 507.255C-29.1407 442.685 -29.1407 338 87.4224 273.432C203.985 208.864 392.971 208.864 509.533 273.431C626.096 337.999 626.096 442.685 509.532 507.253" fill="#F3F2F1"/>
<path d="M121.994 487.551L115.534 483.821C111.153 481.292 111.153 477.191 115.534 474.661L296.156 370.009C300.537 367.48 307.641 367.48 312.023 370.009L318.484 373.74C322.865 376.269 322.865 380.371 318.484 382.9L137.86 487.551C133.479 490.082 126.375 490.082 121.994 487.551" fill="#DADBD8"/>
<path d="M480.255 444.515C453.487 457.273 410.087 457.273 383.319 444.515C356.551 431.759 356.551 411.072 383.319 398.313C410.087 385.556 453.487 385.556 480.255 398.313C507.023 411.072 507.023 431.759 480.255 444.515Z" fill="#DADBD8"/>
<path d="M444.759 373.436C445.561 363.459 454.44 343.372 465.835 331.251C477.231 319.128 494.271 310.964 505.516 315.849C515.989 320.4 513.687 334.435 499.867 342.747C486.047 351.059 465.46 361.24 458.412 376.963L444.759 395.849V373.436" fill="#809FFF"/>
<path d="M444.759 395.849V373.436C445.561 363.459 454.44 343.372 465.835 331.251C474.936 321.568 487.639 314.412 498.113 314.412C500.753 314.412 503.251 314.867 505.516 315.849C509.903 317.756 512.048 321.327 512.044 325.444C512.039 331.155 507.896 337.917 499.867 342.747C486.047 351.059 465.46 361.24 458.412 376.963L444.759 395.849" fill="#2E89DF"/>
<path d="M442.925 387.031C443.245 387.031 443.539 386.819 443.629 386.496C453.049 352.975 482.827 327.507 499.811 322.716C500.199 322.607 500.425 322.201 500.316 321.813C500.208 321.427 499.812 321.193 499.413 321.308C482.107 326.189 451.783 352.071 442.221 386.101C442.112 386.489 442.339 386.892 442.727 387.001L442.925 387.031Z" fill="white"/>
<path d="M446.251 409.24C448.305 403.76 455.9 395.056 467.595 388.301C480.532 380.829 496.356 378.188 500.461 371.893C505.392 364.331 499.328 356.324 486.612 356.872C473.896 357.421 450.377 372.82 444.759 398.399L446.251 409.24Z" fill="#809FFF"/>
<path d="M444.288 403.159C444.567 403.159 444.832 402.999 444.955 402.727C457.747 374.388 480.831 365.937 491.249 365.428C491.653 365.409 491.964 365.065 491.945 364.661C491.925 364.257 491.599 363.948 491.179 363.967C479.657 364.531 456.677 373.2 443.621 402.125C443.456 402.493 443.62 402.927 443.988 403.093L444.288 403.159Z" fill="white"/>
<path d="M117.762 429.266C116.868 418.161 111.785 399.92 98.8724 382.563C85.0541 363.987 68.2079 352.36 55.6912 357.797C44.0344 362.863 48.4541 378.949 68.5145 394.82C82.5912 405.957 97.1896 420.445 105.033 437.945L117.762 460.211V429.266Z" fill="#809FFF"/>
<path d="M116.329 457.705L105.033 437.945C97.1896 420.445 82.5912 405.957 68.5145 394.82C55.7614 384.731 49.3297 374.553 49.3312 367.176C49.3322 362.949 51.4453 359.643 55.6912 357.797C57.7906 356.885 60.0093 356.455 62.3177 356.455C73.7713 356.455 87.3718 367.101 98.8724 382.563C108.666 395.727 113.955 409.399 116.329 420.08V457.705Z" fill="#2E89DF"/>
<path d="M116.636 437.73C116.314 437.73 116.01 437.532 115.894 437.211C104.712 406.424 81.4271 375.269 61.7312 364.747C61.3459 364.54 61.2011 364.061 61.4063 363.679C61.614 363.291 62.0907 363.149 62.4746 363.353C82.4755 374.041 106.077 405.56 117.377 436.672C117.527 437.082 117.316 437.535 116.906 437.683L116.636 437.73" fill="white"/>
<path d="M116.636 467.215C116.636 467.215 108.394 474.533 94.3563 476.756C80.3183 478.978 74.1235 472.265 74.1235 472.265C74.1235 472.265 79.6511 459.1 87.6229 455.407C87.6229 455.407 74.1073 458.161 63.2593 465.4C63.2593 465.4 54.6875 465.529 51.2755 452.447C51.2755 452.447 56.3546 444.573 73.3942 440.321C73.3942 440.321 63.0276 437.712 48.088 441.521C46.9683 441.966 42.1927 425.052 40.7484 417.248C39.3041 409.445 42.4401 409.527 48.524 407.903C54.6079 406.279 75.3245 405.257 79.1328 408.603C82.9417 411.949 84.876 423.391 84.876 423.391C84.876 423.391 88.5193 416.916 87.6464 411.137C87.6464 411.137 93.7557 409.065 100.59 411.447C107.425 413.829 106.99 417.16 106.99 422.133C106.99 427.452 106.465 430.983 104.943 436.943C104.943 436.943 109.663 432.859 109.829 417.804C109.829 417.804 119.066 425.709 122.775 432.504C126.485 439.299 125.545 457.075 116.636 467.215" fill="#809FFF"/>
<path d="M116.636 468.004C116.343 468.004 116.061 467.839 115.925 467.556C104.597 444.023 62.4823 416.676 47.3959 413.741C46.9688 413.659 46.6885 413.244 46.7713 412.815C46.8547 412.387 47.274 412.112 47.6979 412.191C63.0323 415.173 105.84 442.961 117.346 466.872C117.536 467.265 117.371 467.736 116.978 467.925L116.636 468.004Z" fill="white"/>
<path d="M126.452 479.345L122.354 476.98C119.027 475.059 116.329 470.385 116.329 466.543V107.489C116.329 103.648 119.027 98.9747 122.355 97.0534L287.951 1.44539C291.279 -0.475943 296.675 -0.475943 300.003 1.44539L304.103 3.81206C307.431 5.73339 310.128 10.4067 310.128 14.2494V373.301C310.128 377.144 307.431 381.816 304.103 383.737L138.503 479.347C135.175 481.268 129.779 481.266 126.452 479.345" fill="#263E47"/>
<path d="M140.552 114.519L118.094 101.552C117.004 103.44 116.329 105.568 116.329 107.489V466.542C116.329 470.385 119.027 475.059 122.354 476.98L126.452 479.345C129.78 481.268 135.175 481.268 138.503 479.347L140.552 478.163V114.519" fill="#17282F"/>
<path d="M132.477 116.815V475.868C132.477 479.709 135.175 481.268 138.503 479.347L304.103 383.737C307.431 381.816 310.128 377.144 310.128 373.301V14.2493C310.128 10.4066 307.431 8.84794 304.103 10.7693L138.503 106.377C135.175 108.299 132.477 112.972 132.477 116.815Z" fill="#33535F"/>
<path d="M145.717 139.511L296.887 52.2319C299.739 50.5853 302.052 51.92 302.052 55.2133V341.66C302.052 344.955 299.739 348.959 296.887 350.607L145.719 437.884C142.867 439.531 140.553 438.196 140.553 434.903L140.552 148.456C140.552 145.163 142.864 141.157 145.717 139.511Z" fill="#FAFAF9"/>
<path d="M221.301 67.8973C223.532 66.6106 225.34 67.6533 225.34 70.228C225.34 72.804 223.532 75.9347 221.301 77.2213C219.072 78.5093 217.264 77.4653 217.264 74.8907C217.264 72.316 219.072 69.1853 221.301 67.8973Z" fill="#17282F"/>
<path d="M209.643 88.0653C217.845 83.5306 232.481 74.8213 240.569 70.064C241.943 69.256 243.055 69.812 243.055 71.3066C243.055 72.8013 241.936 74.6586 240.557 75.4546L209.579 93.3466C208.199 94.1426 207.08 93.5773 207.08 92.0826C207.08 90.588 208.249 88.8373 209.643 88.0653Z" fill="#17282F"/>
<path d="M201.816 92.5893C203.068 91.8653 204.084 92.4519 204.084 93.8973C204.084 95.3439 203.068 97.1013 201.816 97.824C200.564 98.5466 199.549 97.9613 199.549 96.516C199.549 95.0693 200.564 93.3106 201.816 92.5893Z" fill="#17282F"/>
<path d="M221.301 403.569C225.761 400.995 229.377 403.081 229.377 408.232C229.377 413.381 225.761 419.643 221.301 422.217C216.843 424.792 213.227 422.705 213.227 417.556C213.227 412.405 216.843 406.144 221.301 403.569Z" fill="#17282F"/>
<path d="M277.451 263.773L230.044 164.725C229.651 163.904 229.211 163.372 228.768 163.116L228.769 163.111L224.7 160.761L224.699 160.767C223.801 160.252 222.895 160.884 222.351 162.648L173.573 320.884C173.132 322.317 173.323 323.252 173.959 323.604L173.951 323.631L178.016 325.979L178.024 325.952C178.56 326.247 179.403 326.137 180.492 325.508L275.28 270.783C277.671 269.403 278.643 266.264 277.451 263.773Z" fill="#809FFF"/>
<path d="M178.692 326.108C178.433 326.108 178.211 326.055 178.024 325.952L178.016 325.979L173.951 323.631L173.959 323.604C173.556 323.381 173.332 322.925 173.333 322.257C173.335 321.869 173.411 321.411 173.573 320.884L222.351 162.648C222.772 161.28 223.412 160.593 224.097 160.593C224.295 160.593 224.497 160.651 224.699 160.767L224.7 160.761L228.769 163.111L228.768 163.116C229.211 163.372 229.651 163.904 230.044 164.725L277.451 263.773C277.796 264.493 277.959 265.267 277.96 266.037C277.963 267.931 276.98 269.801 275.28 270.783L180.492 325.508C179.781 325.919 179.176 326.108 178.692 326.108" fill="#2E89DF"/>
<path d="M177.635 323.229L226.413 164.993C227.227 162.355 228.852 162.235 230.044 164.725L277.451 263.773C278.643 266.264 277.671 269.403 275.279 270.783L180.492 325.508C178.101 326.889 176.821 325.869 177.635 323.229" fill="#809FFF"/>
<path d="M229.007 281.635C227.485 282.513 226.157 282.521 225.023 281.66C223.888 280.8 223.321 279.005 223.321 276.28C223.321 273.9 223.864 271.561 224.948 269.265C226.033 266.971 227.36 265.368 228.932 264.461C230.503 263.555 231.843 263.616 232.952 264.644C234.061 265.675 234.616 267.379 234.616 269.759C234.616 272.447 234.056 274.883 232.933 277.065C231.812 279.248 230.503 280.771 229.007 281.635V281.635ZM224.855 249.495L223.659 222.603C223.433 217.359 223.321 213.565 223.321 211.224C223.321 208.037 223.864 205.239 224.948 202.827C226.033 200.416 227.46 198.7 229.231 197.677C231.375 196.44 232.808 196.755 233.532 198.62C234.255 200.488 234.616 203.571 234.616 207.869C234.616 210.403 234.529 213.027 234.355 215.736L232.747 245.053C232.572 248.532 232.197 251.34 231.624 253.475C231.051 255.611 230.103 257.06 228.781 257.823C227.436 258.6 226.5 258.267 225.977 256.821C225.453 255.377 225.08 252.935 224.855 249.495" fill="white"/>
<path d="M531.707 152.656C528.459 154.141 518.151 154.632 508.491 154.103C497.093 153.479 483.103 148.739 477.392 145.868C465.801 140.043 450.62 129.205 444.117 125.433C437.615 121.661 433.981 122.837 430.185 125.073C425.727 127.699 425.035 133.439 433.676 139.979C442.317 146.519 458.753 156.457 472.421 162.069C479.045 164.789 490.001 168.223 504.644 169.081C514.873 169.681 523.141 169.497 532.999 166.701C535.987 165.853 534.703 151.288 531.707 152.656" fill="#F4D3BD"/>
<path d="M520.856 153.068C520.589 154.225 517.456 154.301 517.456 154.301C517.456 154.301 515.188 157.225 515.804 163.263C516.42 169.3 518.277 170.289 518.277 170.289C518.277 170.289 526.976 171.259 535.751 166.407L520.856 153.068" fill="#DADBD8"/>
<path d="M530.197 167.436C539.404 167.12 542.807 162.459 544.088 154.381C545.369 146.304 545.153 135.756 545.255 132.963C545.357 130.147 544.537 129.207 543.42 129.041C543 128.98 541.223 129.436 541.025 132.421C540.664 137.867 540.523 141.219 539.484 141.18C538.451 141.143 538.615 137.105 538.696 131.601C538.751 127.895 538.635 124.767 536.564 124.767C534.364 124.767 533.815 126.971 533.705 131.993C533.596 137.015 533.735 140.721 532.387 140.821C531.315 140.9 531.535 135.58 531.293 132.145C531.051 128.685 531.059 126.664 528.915 126.708C526.969 126.748 526.443 129.508 526.523 132.889C526.596 136.011 526.525 145.52 526.172 146.703C525.577 148.692 523.52 143.807 522.016 141.801C519.549 138.513 516.541 140.017 517.76 143.011C518.977 146.004 520.387 150.271 521.104 154.353C521.752 158.041 523.309 167.471 530.197 167.436" fill="#E7E8E5"/>
<path d="M530.161 150.755C530.161 150.755 535.707 156.529 533.705 162.696C533.705 162.696 536.731 159.168 534.697 154.428C533.316 151.204 530.161 150.755 530.161 150.755" fill="#DADBD8"/>
<path d="M434.211 121.773C437.996 122.203 441.584 121.463 452.464 128.865C463.344 136.269 471.765 140.963 471.765 140.963C471.765 140.963 472.309 153.612 465.379 161.719C465.379 161.719 453.448 157.019 445.605 152.471C437.764 147.923 434.211 121.773 434.211 121.773" fill="#809FFF"/>
<path d="M465.379 161.719C465.379 161.719 458.399 158.968 451.605 155.64C451.392 150.544 451.14 146.576 450.845 144.596C448.955 131.895 444.005 125.155 438.217 122.691C438.151 122.488 438.079 122.3 438.003 122.128C441.016 122.556 445.044 123.817 452.464 128.865C463.344 136.269 471.765 140.963 471.765 140.963C471.765 140.963 471.776 141.196 471.776 141.619C471.776 141.925 471.771 142.332 471.752 142.821C471.625 146.231 470.875 153.679 466.928 159.657C466.459 160.368 465.943 161.059 465.379 161.719" fill="#2E89DF"/>
<path d="M391.039 414.377H404.045V392.111H391.039V414.377Z" fill="#F4D3BD"/>
<path d="M433.452 398.201L446.452 398.648L447.103 375.085L434.104 374.637L433.452 398.201" fill="#F4D3BD"/>
<path d="M391.893 215.609C391.893 228.029 391.88 305.573 391.88 305.573C391.577 309.148 388.939 315.339 388.22 330.553C387.34 349.205 386.577 400.325 386.577 400.325C386.577 400.325 396.287 406.603 404.897 400.557C404.897 400.557 416.441 327.251 418.772 308.772C420.807 292.645 424.257 248.833 424.257 248.833L428.789 315.895C428.789 315.895 426.668 328.017 426.203 336.573C425.736 345.129 429.535 388.365 429.535 388.365C429.535 388.365 439.813 394.275 447.355 390.245C447.355 390.245 453.012 322.883 454.353 315.155C455.695 307.427 452.728 215.609 452.728 215.609H391.893" fill="#17282F"/>
<path d="M404.045 407.957V406.096C405.291 406.639 408.181 417.671 413.343 422.377C417.445 426.12 423.041 430.442 424.465 434.613C425.945 438.953 416.672 441.348 412.839 440.669C408.385 439.881 400.665 436.745 398.728 433.839C396.791 430.93 395.883 426.642 394.308 424.512C392.733 422.381 389.104 420.003 388.253 417.537C387.785 416.183 388.34 413.216 388.997 410.709C389.6 408.409 390.253 405.881 391.039 406.096C391.041 406.377 391.039 407.515 391.039 407.515C391.984 408.561 394.596 409.6 397.541 409.713C399.445 409.785 404.061 409.408 404.045 407.957" fill="#17282F"/>
<path d="M446.589 394.637C447.265 394.661 447.815 395.613 449.304 397.227C451.105 399.175 454.049 401.277 456.956 402.731C461.827 405.169 471.295 408.92 475.58 410.851C478.257 412.056 478.132 415.289 475.364 417.131C472.597 418.971 465.916 420.296 457.893 418.503C453.523 417.525 447.833 413.488 444.233 413.707C440.632 413.924 433.893 413.872 431.236 412.04C428.577 410.208 429.641 406.295 430.392 402.933C431.212 399.263 432.385 393.648 433.6 393.899L433.561 395.053C435.124 397.421 443.085 398.388 446.521 396.645L446.589 394.637" fill="#17282F"/>
<path d="M424.257 248.833C424.257 248.833 434.653 245.905 442.369 238.449C442.369 238.449 438.875 244.992 428.481 251.081L426.927 288.341L424.257 248.833" fill="#040606"/>
<path d="M404.389 125.76C402.639 126.071 400.609 126.373 399.02 126.997C395.452 128.397 393.819 132.796 392.961 136.681C392.345 139.472 391.893 142.8 391.893 146.557V172.041V215.609C401.013 225.532 432.811 230.155 452.728 215.609C452.728 215.609 452.337 154.617 450.845 144.596C448.253 127.188 439.92 120.979 431.551 121.628L411.473 124.501L404.389 125.76" fill="#809FFF"/>
<path d="M401.169 126.365C394.928 127.272 388.677 126.847 382.056 136.128C374.749 146.368 372.621 148.563 361.349 166.389C357.036 173.211 352.195 180.056 352.405 182.024C353.028 187.848 363.456 202.555 373.805 212.404L384.277 203.367L372.532 181.268C372.532 181.268 381.895 170.788 385.607 166.389C391.893 158.941 396.895 153.068 396.895 153.068C400.284 145.552 403.156 139.277 401.169 126.365" fill="#F4D3BD"/>
<path d="M403.376 125.937C403.376 125.937 393.663 124.836 387.745 129.024C381.828 133.212 365.207 157.935 365.207 157.935C365.207 157.935 369.712 170.709 382.055 173.224C382.055 173.224 394.399 158.572 397.664 154.251C401.243 149.515 405.199 139.892 403.376 125.937" fill="#809FFF"/>
<path d="M382.055 173.224C381.383 173.087 380.733 172.92 380.107 172.725C371.628 170.099 367.313 162.575 365.823 159.388C365.403 158.488 365.207 157.935 365.207 157.935C365.207 157.935 381.828 133.212 387.745 129.024C391.624 126.279 397.135 125.807 400.471 125.807C402.224 125.807 403.376 125.937 403.376 125.937C403.693 128.363 403.835 130.657 403.835 132.819C403.835 143.091 400.621 150.339 397.664 154.251C396.533 155.748 394.312 158.484 391.893 161.421C387.328 166.965 382.055 173.224 382.055 173.224" fill="#2E89DF"/>
<path d="M418.725 219.908C417.08 219.924 413.424 220.072 410.153 219.548C406.883 219.024 401.191 217.012 401.072 215.969C400.952 214.927 402.777 215.052 405.18 213.293C408.847 210.611 408.84 208.377 407.799 207.04C406.991 206.001 404.905 207.828 401.807 209.188C398.88 210.164 394.104 209.571 391.039 208.619C387.968 207.667 383.947 201.527 383.947 201.527C383.947 201.527 375.292 204.691 372.532 212.539C372.532 212.539 378.857 222.675 385.795 228.601C389.899 232.108 396.789 235.537 404.844 235.985C410.128 236.279 412.971 234.104 413.892 232.056C415.889 231.947 417.255 231.284 418.068 229.82C418.869 228.377 417.812 226.616 417.812 226.616C422.996 224.792 421.903 219.876 418.725 219.908" fill="#E7E8E5"/>
<path d="M417.812 226.616C414.1 227.439 405.676 226.985 401.585 224.865C401.585 224.865 404.052 227.259 410.188 227.68C416.325 228.101 418.164 227.421 418.164 227.421C418.076 227.148 417.959 226.879 417.812 226.616" fill="#DADBD8"/>
<path d="M413.892 232.056C411.567 232.343 404.797 232.927 398.304 229.208C398.304 229.208 403.081 233.639 413.332 232.996C413.552 232.711 413.735 232.393 413.892 232.056" fill="#DADBD8"/>
<path d="M403.339 92.7986C403.339 92.7986 406.331 106.856 407.531 109.165C408.731 111.475 411.211 112.132 411.211 112.132L411.001 102.243L403.339 92.7986Z" fill="#17282F"/>
<path d="M407.095 72.6587C407.095 72.6587 403.872 72.1066 401.359 74.676C398.896 77.1946 400.272 85.0773 403.339 92.7986L408.975 93.4453L407.095 72.6587Z" fill="#17282F"/>
<path d="M410.665 93.4493C409.535 94.1253 407.923 91.9533 406.529 90.4947C405.136 89.0373 400.585 87.044 398.316 91.8267C396.003 96.7013 400.32 103.14 403.901 104.265C410.075 106.203 411.001 102.243 411.001 102.243L411.472 124.509C411.472 124.509 419.531 133.067 430.476 134.551L431.556 123.92L431.539 117.144C431.539 117.144 437.132 117.993 439.861 117.571C444.4 116.869 447.256 113.287 448.633 108.373C450.845 100.48 451.685 94.108 449.809 78.5853C447.752 61.5707 427.963 61.3933 417.276 68.12C406.591 74.8453 410.665 93.4493 410.665 93.4493" fill="#F4D3BD"/>
<path d="M410.665 95.352C410.097 95.3626 407.936 91.776 406.529 90.4946C404.58 88.7213 407.095 72.6586 407.095 72.6586C409.433 61.632 428.536 60.0893 439.212 63.5986C444.748 65.3146 448.337 67.8066 448.125 72.492C447.413 75.5493 440.653 77.2106 438.084 77.5226C430.852 78.404 419.735 76.4653 418.195 76.2546C416.097 75.968 415.521 76.628 414.391 82.18C413.399 87.0533 412.576 95.3146 410.665 95.352" fill="#17282F"/>
<path d="M407.105 73.908L400.272 70.24C401.241 68.2826 403.557 67.516 405.444 68.5293C407.332 69.5413 408.075 71.9506 407.105 73.908Z" fill="#17282F"/>
<path d="M431.539 117.144C431.539 117.144 421.405 115.103 417.863 113.219C415.491 111.959 413.539 109.773 412.965 108.373C412.965 108.373 413.628 111.38 415.747 114.089C418.339 117.401 431.539 119.84 431.539 119.84V117.144Z" fill="#F4D3BD"/>
<path d="M429.747 92.7786C429.747 93.9439 428.836 94.8866 427.715 94.8826C426.593 94.88 425.684 93.9319 425.684 92.7679C425.684 91.6026 426.593 90.66 427.715 90.6626C428.836 90.6666 429.747 91.6133 429.747 92.7786Z" fill="#17282F"/>
<path d="M427.592 85.1119L423.248 87.5093C422.607 86.2613 423.06 84.712 424.26 84.0506C425.46 83.388 426.952 83.8626 427.592 85.1119Z" fill="#17282F"/>
<path d="M447.856 86.8026L443.893 83.7506C444.703 82.616 446.244 82.38 447.337 83.2226C448.432 84.0653 448.664 85.6679 447.856 86.8026Z" fill="#17282F"/>
<path d="M446.636 92.1999C446.636 93.3653 445.727 94.3079 444.605 94.3039C443.484 94.3013 442.575 93.3546 442.575 92.1893C442.575 91.024 443.484 90.0813 444.605 90.0853C445.727 90.088 446.636 91.0346 446.636 92.1999Z" fill="#17282F"/>
<path d="M435.647 88.412L436.313 100.625L442.691 98.452L435.647 88.412Z" fill="#F4D3BD"/>
<path d="M417.087 79.4119C417.087 79.4119 434.259 88.7479 449.58 82.7173C465.316 76.524 448.616 69.7426 448.616 69.7426L417.087 79.4119Z" fill="#17282F"/>
<path d="M449.024 48.8692C437.143 46.2332 424.173 44.8413 408.588 51.2186C393.004 57.5959 389.089 67.1613 389.089 67.1613C389.089 67.1613 404.199 72.3306 416.952 69.5346C429.705 66.7372 449.024 48.8692 449.024 48.8692Z" fill="#809FFF"/>
<path d="M408.653 70.364C408.148 70.364 407.645 70.356 407.145 70.3413C404.848 70.2733 402.616 70.0547 400.549 69.7627C393.983 68.836 389.089 67.1613 389.089 67.1613C389.089 67.1613 393.004 57.596 408.588 51.2186C416.803 47.8573 424.289 46.6546 431.275 46.6546C437.541 46.6546 443.405 47.6226 449.024 48.8693C449.024 48.8693 429.705 66.7373 416.952 69.5346C414.236 70.1293 411.415 70.364 408.653 70.364" fill="#809FFF"/>
<path d="M397.207 72.3413C397.207 72.3413 389.672 69.1387 389.089 67.1613C389.089 67.1613 396.96 67.94 407.196 64.94C417.431 61.9386 428.536 51.6067 440 49.2293C451.464 46.8533 455.932 52.304 455.932 52.304C455.932 52.304 452.904 60.4747 448.669 65.5613C448.669 65.5613 444.675 73.364 431.197 75.9053C417.72 78.4466 397.207 72.3413 397.207 72.3413" fill="#809FFF"/>
<path d="M397.207 72.3413L397.701 74.4893C398.007 75.8146 399.171 77.272 400.456 77.7146C404.903 79.2453 416.18 82.54 431.328 78.9133C440.821 76.6413 445.208 74.0026 447.012 72.1026C448.781 70.2386 448.973 68.992 448.856 67.6653L448.669 65.5613C448.669 65.5613 445.512 69.7426 429.976 73.6253C414.439 77.5066 397.207 72.3413 397.207 72.3413" fill="#263E47"/>
<path d="M440.891 53.6439C440.621 56.0066 437.841 60.4666 434.66 58.6293C434.66 58.6293 434.437 62.1279 434.288 64.5466C434.059 68.2293 436.159 69.3626 439.728 68.4253C443.577 67.4133 445.993 64.2426 446.345 60.5706C446.453 59.4479 446.672 55.4733 446.672 55.4733C443.843 59.1826 440.78 54.5533 440.891 53.6439" fill="#FAFAF9"/>
<path d="M437.951 134.228C436.709 137.176 434.421 138.379 430.271 138.844C426.121 139.309 421.079 137.253 418.791 134.849L423.953 129.711L430.467 134.535L431.055 129.148L437.951 134.228" fill="#DADBD8"/>
<path d="M432.768 142.816C432.768 142.816 439.447 167.58 439.719 170.572C439.991 173.564 434.141 189.521 431.58 189.612C429.02 189.703 424.365 178.823 424.289 176.103C424.215 173.383 428.308 143.301 428.308 143.301L432.768 142.816Z" fill="#EDEDEB"/>
<path d="M434.7 132.62C434.7 132.62 434.953 135.535 434.612 138.213C434.247 141.081 432.768 142.816 432.768 142.816C432.768 142.816 431.121 144.125 428.308 143.301C426.109 141.273 424.663 137.952 424.832 133.996L430.467 134.535L434.7 132.62" fill="#EDEDEB"/>
<path d="M428.308 143.301C428.308 143.301 430.597 144.433 432.768 142.816L432.885 143.252C432.885 143.252 430.939 145.045 428.177 144.263L428.308 143.301Z" fill="#DADBD8"/>
<path d="M430.467 134.535L411.572 120.38L411.297 116.148C411.297 116.148 407.196 117.709 406.208 125.475C408.904 131.737 413.681 136.991 420.857 141.081L424.832 133.996L430.467 134.535" fill="#809FFF"/>
<path d="M431.539 117.924C431.539 117.924 435.869 118.537 437.767 121.667C439.66 124.789 439.227 136.732 439.227 136.732L434.7 132.62L430.467 134.535C430.871 130.556 431.549 123.929 431.549 123.929L431.539 117.924Z" fill="#809FFF"/>
<path d="M420.857 141.081C413.681 136.991 408.904 131.737 406.208 125.475C407.196 117.709 411.297 116.148 411.297 116.148L411.572 120.38L430.467 134.535L424.832 133.996L422.849 137.528L420.857 141.081" fill="#2E89DF"/>
<path d="M439.227 136.732L434.7 132.62L430.467 134.535C430.871 130.556 431.549 123.929 431.549 123.929L431.539 117.924C431.539 117.924 435.869 118.537 437.767 121.667C439.065 123.808 439.269 130.093 439.269 133.835C439.269 135.551 439.227 136.732 439.227 136.732" fill="#2E89DF"/>
<path d="M453.553 115.316C453.553 112.783 451.773 109.7 449.579 108.433C448.496 107.808 447.517 107.747 446.8 108.144L446.799 108.139L446.772 108.153L446.768 108.156L442.733 110.487L448.408 120.187L452.387 117.889L452.391 117.887L452.403 117.88L452.401 117.879C453.112 117.46 453.553 116.575 453.553 115.316" fill="#33535F"/>
<path d="M445.605 110.728C447.8 111.995 449.58 115.076 449.58 117.611C449.58 120.144 447.8 121.171 445.605 119.904C443.411 118.637 441.632 115.556 441.632 113.021C441.632 110.488 443.411 109.46 445.605 110.728Z" fill="#263E47"/>
<path d="M437.659 106.14V107.455C437.659 107.996 438.037 108.652 438.505 108.923L445.605 113.021V110.728L437.659 106.14" fill="#263E47"/>
<path d="M441.632 103.845L437.659 106.14L445.605 110.728L449.58 108.433L441.632 103.845" fill="#33535F"/>
<path d="M452.724 106.721C452.724 106.721 452.971 106.032 453.341 104.997C453.728 103.971 454.244 102.603 454.759 101.233C455.275 99.8653 455.767 98.4853 456.227 97.492C456.345 97.2453 456.453 97.0186 456.549 96.8186C456.656 96.6226 456.715 96.436 456.837 96.3173C457.077 96.076 457.473 96.0573 457.473 96.0573L457.735 96.1773C457.735 96.1773 457.979 96.4906 457.953 96.8293C457.943 97.0013 457.84 97.1666 457.76 97.3746C457.671 97.5773 457.569 97.808 457.46 98.0586C457.007 99.0546 456.281 100.327 455.579 101.609C454.877 102.893 454.175 104.176 453.648 105.139C453.105 106.093 452.743 106.729 452.743 106.729L452.724 106.721" fill="#DADBD8"/>
<path d="M456.113 109.908C456.113 109.908 456.748 109.543 457.7 108.995C458.659 108.464 459.939 107.755 461.219 107.047C462.497 106.337 463.767 105.605 464.76 105.147C465.009 105.036 465.239 104.933 465.443 104.843C465.649 104.763 465.815 104.659 465.985 104.647C466.325 104.62 466.639 104.861 466.639 104.861L466.76 105.123C466.76 105.123 466.744 105.519 466.504 105.76C466.385 105.884 466.2 105.943 466.004 106.051C465.804 106.148 465.579 106.257 465.332 106.377C464.341 106.841 462.965 107.341 461.599 107.864C460.232 108.387 458.867 108.909 457.841 109.301C456.809 109.677 456.121 109.928 456.121 109.928L456.113 109.908Z" fill="#DADBD8"/>
<path d="M456.337 114.973C456.337 114.973 457.063 115.073 458.151 115.224C459.235 115.392 460.68 115.617 462.125 115.841C463.571 116.067 465.021 116.265 466.087 116.513C466.353 116.579 466.596 116.637 466.812 116.691C467.025 116.755 467.22 116.773 467.363 116.871C467.647 117.056 467.747 117.44 467.747 117.44L467.683 117.72C467.683 117.72 467.427 118.023 467.089 118.067C466.92 118.092 466.736 118.025 466.516 117.989C466.299 117.944 466.053 117.892 465.785 117.835C464.717 117.596 463.324 117.145 461.924 116.721C460.524 116.296 459.125 115.872 458.075 115.553C457.029 115.217 456.332 114.992 456.332 114.992L456.337 114.973Z" fill="#DADBD8"/>
<path d="M454.5 119.423C454.5 119.423 455.033 119.924 455.833 120.677C456.619 121.443 457.668 122.463 458.716 123.483C459.764 124.503 460.832 125.505 461.557 126.325C461.736 126.532 461.9 126.721 462.045 126.889C462.183 127.065 462.331 127.193 462.391 127.353C462.515 127.671 462.373 128.041 462.373 128.041L462.159 128.232C462.159 128.232 461.775 128.331 461.475 128.171C461.321 128.093 461.211 127.932 461.052 127.777C460.901 127.613 460.731 127.429 460.545 127.228C459.813 126.415 458.939 125.24 458.043 124.083C457.148 122.927 456.252 121.771 455.581 120.903C454.923 120.023 454.484 119.436 454.484 119.436L454.5 119.423" fill="#DADBD8"/>
<path d="M447.665 107.893L444.957 109.457L446.312 110.239L449.02 108.675L447.665 107.893Z" fill="#263E47"/>
<path d="M444.957 109.457L447.665 107.893V108.403L445.399 109.711L444.957 109.457Z" fill="#17282F"/>
<path d="M447.665 108.403L448.579 108.929L449.02 108.675L447.665 107.893V108.403Z" fill="#040606"/>
</svg>
