<svg viewBox="0 0 240 240" fill="none">
<path opacity="0.08" d="M67.4004 26.4899C67.4004 26.4899 34.2537 43.3932 27.2404 80.4899C20.227 117.587 40.0604 155.09 55.2837 185.823C70.507 216.557 101.73 231.023 130.78 221.74C159.83 212.457 154.504 186 178.087 159.18C201.67 132.36 212.42 128.697 216.13 93.6966C219.84 58.6966 184.384 23.3633 139.464 17.2099C94.5437 11.0566 67.4004 26.4899 67.4004 26.4899Z" fill="#2E89DF"/>
<path d="M107.363 128.572C107.364 128.852 107.282 129.125 107.127 129.358C106.972 129.591 106.751 129.773 106.493 129.88C106.235 129.987 105.951 130.016 105.676 129.962C105.402 129.908 105.15 129.773 104.952 129.576C104.754 129.378 104.619 129.126 104.564 128.852C104.509 128.578 104.537 128.294 104.644 128.035C104.751 127.777 104.932 127.556 105.164 127.4C105.397 127.245 105.67 127.162 105.95 127.162C106.324 127.162 106.683 127.31 106.948 127.575C107.213 127.839 107.362 128.198 107.363 128.572Z" fill="#E0E0E0"/>
<path d="M139.856 160.388C129.26 165.541 117.052 166.273 105.916 162.424C94.78 158.575 85.629 150.461 80.476 139.865C77.924 134.618 76.43 128.919 76.08 123.095C75.73 117.27 76.531 111.434 78.437 105.919C80.343 100.404 83.316 95.3188 87.188 90.9527C91.059 86.587 95.752 83.0266 101 80.4747C111.597 75.3211 123.807 74.5881 134.945 78.4369C146.083 82.2857 155.235 90.4012 160.39 100.998C162.941 106.246 164.434 111.945 164.783 117.77C165.132 123.595 164.33 129.431 162.423 134.946C160.517 140.461 157.542 145.546 153.67 149.912C149.798 154.277 145.104 157.837 139.856 160.388Z" fill="white" stroke="#263238" stroke-width="0.5" stroke-miterlimit="10"/>
<path d="M134.747 100.275C130.79 94.8311 125.037 92.2944 119.033 92.2944C119.033 92.2944 104.33 92.2944 99.977 105.455C98.373 110.305 98.727 115.575 100.673 120.298C101.405 122.093 102.327 123.805 103.423 125.405C107.217 130.888 119.033 145.861 119.033 145.861H121.603C124.9 141.281 133.203 126.065 135.69 121.195C138.81 115.061 139.29 106.525 134.747 100.275ZM121.487 124.608C119.002 124.609 116.574 123.873 114.508 122.493C112.442 121.113 110.832 119.152 109.88 116.857C108.929 114.562 108.68 112.036 109.164 109.6C109.649 107.163 110.844 104.925 112.601 103.168C114.357 101.411 116.595 100.214 119.032 99.7298C121.468 99.2448 123.994 99.4928 126.289 100.444C128.584 101.394 130.546 103.004 131.926 105.07C133.307 107.135 134.043 109.564 134.043 112.048C134.045 113.699 133.721 115.334 133.09 116.86C132.46 118.386 131.534 119.772 130.367 120.94C129.2 122.108 127.814 123.034 126.288 123.666C124.763 124.298 123.128 124.622 121.477 124.621L121.487 124.608Z" fill="#5F7BFB"/>
<path d="M137.323 100.545C133.367 95.1018 127.613 92.5718 121.61 92.5718C121.61 92.5718 106.907 92.5718 102.553 105.735C100.947 110.585 101.303 115.852 103.25 120.575C103.98 122.371 104.901 124.083 105.997 125.682C109.793 131.165 121.61 146.142 121.61 146.142C121.61 146.142 135.277 127.362 138.277 121.475C141.387 115.332 141.867 106.795 137.323 100.545ZM121.493 120.949C119.789 120.949 118.122 120.444 116.705 119.498C115.287 118.551 114.182 117.206 113.53 115.631C112.877 114.056 112.706 112.324 113.039 110.652C113.371 108.98 114.192 107.444 115.397 106.239C116.602 105.034 118.138 104.213 119.81 103.881C121.481 103.548 123.214 103.719 124.789 104.372C126.364 105.024 127.709 106.129 128.656 107.547C129.602 108.964 130.107 110.631 130.107 112.335C130.115 113.469 129.897 114.592 129.467 115.641C129.037 116.69 128.403 117.642 127.602 118.444C126.8 119.245 125.847 119.879 124.799 120.309C123.75 120.739 122.627 120.957 121.493 120.949Z" fill="#71A1FE"/>
<path d="M121.446 103.522C119.65 103.522 117.898 104.079 116.43 105.116C114.963 106.153 113.853 107.619 113.253 109.312C113.923 107.828 115.061 106.605 116.492 105.83C117.923 105.054 119.568 104.768 121.177 105.016C122.786 105.264 124.269 106.032 125.4 107.203C126.531 108.373 127.247 109.882 127.44 111.498C127.632 113.115 127.29 114.75 126.465 116.153C125.641 117.556 124.38 118.651 122.874 119.27C121.368 119.889 119.702 119.997 118.129 119.579C116.556 119.161 115.163 118.24 114.163 116.955C114.984 118.218 116.12 119.246 117.458 119.938C118.797 120.629 120.292 120.962 121.797 120.901C123.303 120.841 124.767 120.391 126.046 119.595C127.324 118.798 128.374 117.683 129.093 116.359C129.811 115.034 130.172 113.546 130.142 112.039C130.111 110.533 129.69 109.061 128.919 107.766C128.148 106.472 127.054 105.4 125.744 104.656C124.434 103.912 122.953 103.521 121.446 103.522Z" fill="#5F7BFB"/>
</svg>
