<svg viewBox="0 0 251 140" fill="none">
<path d="M199.281 83.3788C199.169 83.3788 199.066 83.4095 198.954 83.4109C201.015 78.6478 202.167 73.4014 202.167 67.8826C202.167 46.2413 184.624 28.698 162.982 28.698C155.334 28.698 148.221 30.924 142.188 34.7109C134.03 14.883 114.539 0.910279 91.7679 0.910279C61.6567 0.910279 37.2474 25.3197 37.2474 55.4322C37.2474 57.7075 37.4289 59.9375 37.7 62.1394C37.5478 62.1381 37.3996 62.1167 37.2474 62.1167C17.0562 62.1167 0.690674 78.4836 0.690674 98.6734C0.690674 118.862 17.0562 135.229 37.2474 135.229H199.281C213.6 135.229 225.206 123.621 225.206 109.304C225.206 94.9853 213.6 83.3788 199.281 83.3788" fill="white"/>
<path d="M179.126 9.90096H96.2625C93.7801 9.90096 91.7678 7.88866 91.7678 5.40499C91.7678 2.92399 93.7801 0.910329 96.2625 0.910329H179.126C181.61 0.910329 183.622 2.92399 183.622 5.40499C183.622 7.88866 181.61 9.90096 179.126 9.90096" fill="white"/>
<path d="M246.196 9.90096H198.116C195.633 9.90096 193.62 7.88866 193.62 5.40499C193.62 2.92399 195.633 0.910329 198.116 0.910329H246.196C248.678 0.910329 250.691 2.92399 250.691 5.40499C250.691 7.88866 248.678 9.90096 246.196 9.90096Z" fill="white"/>
<path d="M213.154 37.6953H163.582C161.098 37.6953 159.086 35.6831 159.086 33.2007C159.086 30.717 161.098 28.7047 163.582 28.7047H213.154C215.636 28.7047 217.649 30.717 217.649 33.2007C217.649 35.6831 215.636 37.6953 213.154 37.6953Z" fill="white"/>
<path d="M245.946 37.6953H232.798C230.314 37.6953 228.302 35.6831 228.302 33.2007C228.302 30.717 230.314 28.7047 232.798 28.7047H245.946C248.429 28.7047 250.442 30.717 250.442 33.2007C250.442 35.6831 248.429 37.6953 245.946 37.6953Z" fill="white"/>
<path d="M245.946 92.061H163.582C161.098 92.061 159.086 90.0473 159.086 87.5636C159.086 85.0813 161.098 83.0691 163.582 83.0691H245.946C248.429 83.0691 250.442 85.0813 250.442 87.5636C250.442 90.0473 248.429 92.061 245.946 92.061Z" fill="white"/>
<path d="M245.946 139.235H163.582C161.098 139.235 159.086 137.222 159.086 134.74C159.086 132.256 161.098 130.243 163.582 130.243H245.946C248.429 130.243 250.442 132.256 250.442 134.74C250.442 137.222 248.429 139.235 245.946 139.235Z" fill="white"/>
</svg>
