<svg viewBox="0 0 251 233" fill="none">
<path d="M221.646 91.8325C221.521 91.8325 221.407 91.8666 221.284 91.8681C223.576 86.5645 224.861 80.7226 224.861 74.5774C224.861 50.4797 205.325 30.9437 181.227 30.9437C172.711 30.9437 164.79 33.4223 158.074 37.642C148.989 15.562 127.287 0.00341254 101.93 0.00341254C68.3992 0.00341254 41.2192 27.1834 41.2192 60.7138C41.2192 63.2474 41.4244 65.7305 41.7262 68.1823C41.5552 68.1808 41.3902 68.1571 41.2192 68.1571C18.7392 68.1571 0.513916 86.3816 0.513916 108.863C0.513916 131.343 18.7392 149.568 41.2192 149.568H221.646C237.59 149.568 250.514 136.644 250.514 120.7C250.514 104.756 237.59 91.8325 221.646 91.8325" fill="white"/>
<path d="M80.5128 220.692C75.6091 230.893 63.3632 235.189 53.1618 230.285C42.9604 225.382 38.6648 213.136 43.5685 202.934C48.4737 192.733 80.1842 174.067 80.1842 174.067C80.1842 174.067 85.4165 210.491 80.5128 220.692" fill="#C2D9F2"/>
<path d="M131.475 220.692C126.573 230.893 114.327 235.189 104.126 230.285C93.9228 225.382 89.6287 213.136 94.5324 202.934C99.4376 192.733 131.148 174.067 131.148 174.067C131.148 174.067 136.38 210.491 131.475 220.692" fill="#C2D9F2"/>
<path d="M183.159 220.692C178.255 230.893 166.009 235.189 155.808 230.285C145.606 225.382 141.312 213.136 146.215 202.934C151.12 192.733 182.83 174.067 182.83 174.067C182.83 174.067 188.063 210.491 183.159 220.692" fill="#C2D9F2"/>
</svg>
