<svg viewBox="0 0 250 294" fill="none">
<path d="M195.092 93.1575C202.077 93.1575 208.658 91.3792 214.4 88.2404C204.898 98.4805 191.316 104.874 176.259 104.874C147.503 104.874 124.188 81.5569 124.188 52.8025C124.188 24.0465 147.503 0.732486 176.259 0.732486C191.316 0.732486 204.898 7.12599 214.4 17.3645C208.658 14.2273 202.077 12.4475 195.092 12.4475C172.801 12.4475 154.737 30.5129 154.737 52.8025C154.737 75.092 172.801 93.1575 195.092 93.1575" fill="#FBDB60"/>
<path d="M221.131 155.743C221.006 155.743 220.893 155.777 220.768 155.778C223.061 150.475 224.346 144.633 224.346 138.488C224.346 114.39 204.81 94.8554 180.712 94.8554C172.195 94.8554 164.275 97.3341 157.559 101.551C148.474 79.4724 126.772 63.9138 101.415 63.9138C67.8858 63.9138 40.7059 91.0937 40.7059 124.624C40.7059 127.158 40.9096 129.641 41.2114 132.092C41.0404 132.091 40.8754 132.067 40.7059 132.067C18.2245 132.067 0 150.292 0 172.773C0 195.253 18.2245 213.477 40.7059 213.477H221.131C237.075 213.477 250 200.552 250 184.61C250 168.666 237.075 155.743 221.131 155.743" fill="white"/>
<path d="M83.9572 282.235C79.0535 292.436 66.8077 296.732 56.6063 291.828C46.4049 286.924 42.1094 274.678 47.0131 264.477C51.9183 254.276 83.6286 235.609 83.6286 235.609C83.6286 235.609 88.8609 272.033 83.9572 282.235" fill="#C2D9F2"/>
<path d="M134.92 282.235C130.017 292.436 117.772 296.732 107.57 291.828C97.3673 286.924 93.0733 274.678 97.977 264.477C102.882 254.276 134.592 235.609 134.592 235.609C134.592 235.609 139.825 272.033 134.92 282.235" fill="#C2D9F2"/>
<path d="M186.603 282.235C181.7 292.436 169.454 296.732 159.252 291.828C149.051 286.924 144.757 274.678 149.659 264.477C154.564 254.276 186.275 235.609 186.275 235.609C186.275 235.609 191.507 272.033 186.603 282.235" fill="#C2D9F2"/>
</svg>
