<svg viewBox="0 0 250 252" fill="none">
<path d="M111.292 79.9429C111.292 97.6403 96.9427 111.988 79.2429 111.988C61.543 111.988 47.1942 97.6403 47.1942 79.9429C47.1942 62.2455 61.543 47.8979 79.2429 47.8979C96.9427 47.8979 111.292 62.2455 111.292 79.9429" fill="#FBDB60"/>
<path d="M79.2429 35.7178C77.121 35.7178 75.4005 33.9937 75.4005 31.8754V4.54725C75.4005 2.41667 77.121 0.704785 79.2429 0.704785C81.3649 0.704785 83.0841 2.41667 83.0841 4.54725V31.8754C83.0841 33.9937 81.3649 35.7178 79.2429 35.7178Z" fill="#FBDB60"/>
<path d="M79.2429 159.183C77.121 159.183 75.4005 157.464 75.4005 155.342V128.01C75.4005 125.88 77.121 124.168 79.2429 124.168C81.3649 124.168 83.0841 125.88 83.0841 128.01V155.342C83.0841 157.464 81.3649 159.183 79.2429 159.183Z" fill="#FBDB60"/>
<path d="M110.514 48.6738C109.014 47.1713 109.014 44.7328 110.514 43.2303L129.842 23.9074C131.342 22.4049 133.775 22.4049 135.275 23.9074C136.776 25.4098 136.776 27.836 135.275 29.3384L115.948 48.6738C114.448 50.164 112.014 50.164 110.514 48.6738" fill="#FBDB60"/>
<path d="M23.2097 135.979C21.7097 134.476 21.7097 132.038 23.2097 130.547L42.5377 111.212C44.0378 109.709 46.4701 109.709 47.9713 111.212C49.4714 112.714 49.4714 115.153 47.9713 116.643L28.6434 135.979C27.1433 137.469 24.7098 137.469 23.2097 135.979Z" fill="#FBDB60"/>
<path d="M123.468 79.943C123.468 77.8248 125.187 76.1006 127.309 76.1006H154.644C156.764 76.1006 158.485 77.8248 158.485 79.943C158.485 82.0613 156.764 83.7855 154.644 83.7855H127.309C125.187 83.7855 123.468 82.0613 123.468 79.943Z" fill="#FBDB60"/>
<path d="M0 79.943C0 77.8248 1.72047 76.1006 3.84244 76.1006H31.1755C33.2975 76.1006 35.018 77.8248 35.018 79.943C35.018 82.0613 33.2975 83.7855 31.1755 83.7855H3.84244C1.72047 83.7855 0 82.0613 0 79.943Z" fill="#FBDB60"/>
<path d="M110.514 111.212C112.014 109.709 114.448 109.709 115.948 111.212L135.275 130.547C136.776 132.038 136.776 134.476 135.275 135.979C133.775 137.469 131.342 137.469 129.842 135.979L110.514 116.643C109.014 115.153 109.014 112.714 110.514 111.212" fill="#FBDB60"/>
<path d="M23.2097 23.9074C24.7098 22.4049 27.1433 22.4049 28.6434 23.9074L47.9713 43.2303C49.4714 44.7328 49.4714 47.1713 47.9713 48.6738C46.4701 50.164 44.0378 50.164 42.5377 48.6738L23.2097 29.3384C21.7097 27.836 21.7097 25.4098 23.2097 23.9074Z" fill="#FBDB60"/>
<path d="M226.089 135.966C225.986 135.966 225.891 135.991 225.788 135.991C227.687 131.594 228.751 126.754 228.751 121.668C228.751 101.704 212.569 85.5341 192.611 85.5341C185.557 85.5341 178.995 87.5785 173.433 91.0761C165.908 72.7875 147.933 59.8933 126.929 59.8933C99.1571 59.8933 76.6443 82.4183 76.6443 110.19C76.6443 112.283 76.8143 114.34 77.063 116.372C76.9226 116.372 76.7859 116.348 76.6443 116.348C58.0232 116.348 42.9281 131.446 42.9281 150.066C42.9281 168.686 58.0232 183.781 76.6443 183.781H226.089C239.295 183.781 250 173.077 250 159.871C250 146.666 239.295 135.966 226.089 135.966Z" fill="white"/>
<path d="M115.41 241.606C111.348 250.056 101.205 253.614 92.7553 249.552C84.3056 245.49 80.7477 235.347 84.8093 226.898C88.8722 218.448 115.138 202.987 115.138 202.987C115.138 202.987 119.471 233.156 115.41 241.606" fill="#C2D9F2"/>
<path d="M157.621 241.606C153.561 250.056 143.418 253.614 134.968 249.552C126.517 245.49 122.96 235.347 127.022 226.898C131.085 218.448 157.35 202.987 157.35 202.987C157.35 202.987 161.684 233.156 157.621 241.606" fill="#C2D9F2"/>
<path d="M200.43 241.606C196.368 250.056 186.225 253.614 177.775 249.552C169.326 245.49 165.769 235.347 169.83 226.898C173.892 218.448 200.158 202.987 200.158 202.987C200.158 202.987 204.492 233.156 200.43 241.606" fill="#C2D9F2"/>
</svg>
