<svg viewBox="0 0 251 251" fill="none">
<path d="M129.306 250.813H122.111C117.991 250.813 114.65 247.475 114.65 243.355V8.2797C114.65 4.15974 117.991 0.81817 122.111 0.81817H129.306C133.427 0.81817 136.767 4.15974 136.767 8.2797V243.355C136.767 247.475 133.427 250.813 129.306 250.813" fill="white"/>
<path d="M169.194 18.9834C172.108 21.8967 172.109 26.6208 169.196 29.5357L125.906 72.849L125.738 72.652L125.539 72.849L82.2291 29.539C79.3142 26.6224 79.3159 21.8951 82.2341 18.9818L87.3229 13.9027C90.2379 10.9927 94.9603 10.9943 97.872 13.9076L120.458 36.4924C123.373 39.4073 128.099 39.4073 131.014 36.4908L153.57 13.9157C156.483 10.9992 161.21 10.9992 164.125 13.9141L169.194 18.9834" fill="white"/>
<path d="M82.2226 232.656C79.3093 229.741 79.3094 225.019 82.221 222.104L125.512 178.787L125.681 178.983L125.878 178.787L169.188 222.088C172.104 225.019 172.103 229.741 169.183 232.656L164.094 237.737C161.179 240.636 156.458 240.636 153.547 237.721L130.96 215.15C128.045 212.236 123.318 212.236 120.405 215.15L97.8491 237.721C94.9359 240.636 90.2085 240.636 87.2936 237.721L82.2226 232.656" fill="white"/>
<path d="M0.709351 129.413V122.215C0.709351 118.095 4.04926 114.757 8.17247 114.757H243.246C247.368 114.757 250.709 118.095 250.709 122.215V129.413C250.709 133.533 247.368 136.871 243.246 136.871H8.17247C4.04926 136.871 0.709351 133.533 0.709351 129.413Z" fill="white"/>
<path d="M232.543 169.31C229.629 172.208 224.907 172.225 221.99 169.31L178.677 126.01L178.874 125.847L178.677 125.651L221.987 82.338C224.903 79.4215 229.631 79.4231 232.544 82.3429L237.625 87.4318C240.535 90.3467 240.532 95.0691 237.62 97.9841L215.034 120.571C212.119 123.485 212.119 128.208 215.035 131.123L237.61 153.677C240.527 156.592 240.528 161.314 237.613 164.229L232.543 169.31" fill="white"/>
<path d="M18.8745 82.3315C21.7878 79.4182 26.5119 79.4166 29.4268 82.3299L72.7417 125.619L72.5447 125.782L72.7417 125.993L29.4317 169.294C26.5151 172.208 21.7861 172.208 18.8729 169.294L13.7937 164.197C10.8837 161.282 10.8853 156.559 13.7986 153.661L36.3835 131.074C39.2984 128.159 39.2984 123.42 36.3818 120.505L13.8068 97.9515C10.8902 95.0366 10.8902 90.3141 13.8051 87.4025L18.8745 82.3315" fill="white"/>
<path d="M66.0066 185.529L65.9953 185.513C63.0804 182.598 63.0804 177.875 65.9953 174.961L174.858 66.1041C177.773 63.1892 182.497 63.1892 185.412 66.1041L185.424 66.1138C188.337 69.0287 188.337 73.7545 185.424 76.6678L76.559 185.529C73.6457 188.444 68.9199 188.444 66.0066 185.529Z" fill="white"/>
<path d="M197.511 93.1313C197.511 97.2512 194.171 100.606 190.051 100.606H151.104L151.119 100.443H150.93V61.4841C150.93 57.3593 154.275 54.0177 158.398 54.021H158.412C162.531 54.0259 165.869 57.3642 165.869 61.4841V78.2196C165.869 82.3412 169.211 85.6828 173.334 85.6812L190.046 85.6746C194.17 85.673 197.511 89.0146 197.511 93.1313Z" fill="white"/>
<path d="M53.9058 158.497C53.9058 154.377 57.2456 151.039 61.3656 151.039L100.313 151.022L100.3 151.202H100.489V190.154C100.489 194.274 97.1425 197.612 93.0193 197.612H93.0046C88.8863 197.612 85.5496 194.274 85.5496 190.154V173.414C85.5496 169.294 82.2064 165.955 78.0832 165.955H61.3721C57.2489 165.955 53.9058 162.617 53.9058 158.497" fill="white"/>
<path d="M65.9953 66.1138L66.0066 66.1041C68.9199 63.1892 73.6457 63.1892 76.559 66.1041L185.424 174.961C188.337 177.875 188.337 182.598 185.424 185.513L185.412 185.529C182.497 188.444 177.773 188.444 174.858 185.529L65.9953 76.6678C63.0804 73.7545 63.0804 69.0287 65.9953 66.1138" fill="white"/>
<path d="M158.39 197.628C154.27 197.628 150.928 194.274 150.926 190.154L150.915 151.218L151.091 151.234V151.039H190.043C194.167 151.039 197.51 154.377 197.505 158.513C197.502 162.633 194.162 165.972 190.043 165.972H173.306C169.185 165.972 165.843 169.326 165.845 173.446L165.851 190.154C165.853 194.274 162.513 197.628 158.39 197.628" fill="white"/>
<path d="M93.029 54.0145C97.149 54.0145 100.49 57.3544 100.49 61.4744L100.502 100.427L100.328 100.41V100.59H61.3753C57.2504 100.59 53.9089 97.2513 53.9121 93.1313V93.115C53.917 88.9951 57.2553 85.6568 61.3753 85.6568H78.1108C82.234 85.6568 85.5739 82.3152 85.5739 78.192L85.5658 61.4809C85.5642 57.3577 88.9058 54.0145 93.029 54.0145" fill="white"/>
</svg>
