<svg viewBox="0 0 251 264" fill="none">
<path d="M222.095 92.6736C221.97 92.6736 221.857 92.7078 221.732 92.7093C224.025 87.4056 225.31 81.5638 225.31 75.4186C225.31 51.321 205.774 31.785 181.676 31.785C173.159 31.785 165.239 34.2636 158.523 38.4834C149.438 16.4034 127.736 0.844835 102.379 0.844835C68.8498 0.844835 41.6699 28.0247 41.6699 61.555C41.6699 64.0886 41.8736 66.5717 42.1754 69.0235C42.0044 69.0221 41.8394 68.9983 41.6699 68.9983C19.1885 68.9983 0.963989 87.2228 0.963989 109.704C0.963989 132.184 19.1885 150.409 41.6699 150.409H222.095C238.039 150.409 250.964 137.485 250.964 121.541C250.964 105.597 238.039 92.6736 222.095 92.6736" fill="#C2D9F2"/>
<path d="M112.349 167.853L96.7209 215.446H118.269L104.298 263.749L155.205 195.556H128.923L138.868 167.853H112.349Z" fill="#FBDB60"/>
</svg>
