<svg viewBox="0 0 251 251" fill="none">
<path d="M176.408 125.218C176.408 153.14 153.773 175.775 125.863 175.775C97.9363 175.775 75.3015 153.14 75.3015 125.218C75.3015 97.2914 97.9363 74.6566 125.863 74.6566C153.773 74.6566 176.408 97.2914 176.408 125.218Z" fill="#F6C833"/>
<path d="M125.863 55.4508C122.516 55.4508 119.796 52.7471 119.796 49.4005V6.27418C119.796 2.9276 122.516 0.22392 125.863 0.22392C129.21 0.22392 131.913 2.9276 131.913 6.27418V49.4005C131.913 52.7471 129.21 55.4508 125.863 55.4508Z" fill="#F6C833"/>
<path d="M125.863 250.219C122.516 250.219 119.796 247.505 119.796 244.159V201.042C119.796 197.695 122.516 194.982 125.863 194.982C129.21 194.982 131.913 197.695 131.913 201.042V244.159C131.913 247.505 129.21 250.219 125.863 250.219Z" fill="#F6C833"/>
<path d="M175.188 75.8929C172.814 73.5189 172.814 69.6778 175.188 67.3203L205.67 36.8219C208.044 34.4645 211.885 34.4645 214.242 36.8219C216.616 39.1958 216.616 43.037 214.242 45.3944L183.761 75.8929C181.387 78.2503 177.562 78.2503 175.188 75.8929Z" fill="#F6C833"/>
<path d="M37.4703 213.607C35.103 211.24 35.103 207.402 37.4703 205.037L67.9573 174.548C70.323 172.182 74.1609 172.182 76.5283 174.548C78.8939 176.915 78.8939 180.752 76.5283 183.119L46.0396 213.607C43.6723 215.975 39.836 215.975 37.4703 213.607Z" fill="#F6C833"/>
<path d="M195.614 125.218C195.614 121.872 198.334 119.151 201.68 119.151H244.79C248.137 119.151 250.857 121.872 250.857 125.218C250.857 128.565 248.137 131.285 244.79 131.285H201.68C198.334 131.285 195.614 128.565 195.614 125.218Z" fill="#F6C833"/>
<path d="M0.857178 125.218C0.857178 121.872 3.57084 119.151 6.91742 119.151H50.0356C53.3822 119.151 56.094 121.872 56.094 125.218C56.094 128.565 53.3822 131.285 50.0356 131.285H6.91742C3.57084 131.285 0.857178 128.565 0.857178 125.218Z" fill="#F6C833"/>
<path d="M175.188 174.548C177.562 172.182 181.387 172.182 183.761 174.548L214.242 205.037C216.616 207.402 216.616 211.24 214.242 213.607C211.885 215.975 208.044 215.975 205.67 213.607L175.188 183.119C172.814 180.752 172.814 176.915 175.188 174.548Z" fill="#F6C833"/>
<path d="M37.4703 36.8219C39.836 34.4645 43.6723 34.4645 46.0396 36.8219L76.5283 67.3203C78.8939 69.6778 78.8939 73.5189 76.5283 75.8929C74.1609 78.2503 70.323 78.2503 67.9573 75.8929L37.4703 45.3944C35.103 43.037 35.103 39.1958 37.4703 36.8219Z" fill="#F6C833"/>
</svg>
