<svg viewBox="0 0 275 150" fill="none">
<path d="M252.551 69.1601C252.459 69.1601 252.372 69.1868 252.28 69.1868C253.985 65.2534 254.94 60.9067 254.94 56.3334C254.94 38.4134 240.412 23.88 222.488 23.88C216.155 23.88 210.263 25.7201 205.268 28.8667C198.512 12.4401 182.369 0.866722 163.512 0.866722C138.575 0.866722 118.359 21.0801 118.359 46.0267C118.359 47.9067 118.511 49.7467 118.735 51.5734C118.608 51.5734 118.485 51.5601 118.359 51.5601C101.639 51.5601 88.084 65.1067 88.084 81.8267C88.084 98.5467 101.639 112.107 118.359 112.107H252.551C264.409 112.107 274.021 102.493 274.021 90.64C274.021 78.7734 264.409 69.1601 252.551 69.1601" fill="#C2D9F2"/>
<path d="M198.751 97.4133C198.639 97.4133 198.536 97.44 198.424 97.44C200.48 92.68 201.633 87.44 201.633 81.9333C201.633 60.32 184.115 42.8133 162.505 42.8133C154.868 42.8133 147.765 45.0266 141.743 48.8133C133.596 29.0133 114.135 15.0534 91.3959 15.0534C61.3293 15.0534 36.9546 39.44 36.9546 69.5066C36.9546 71.7733 37.1386 74 37.4092 76.2C37.2559 76.2 37.1079 76.1733 36.9546 76.1733C16.7959 76.1733 0.453247 92.52 0.453247 112.679C0.453247 132.837 16.7959 149.18 36.9546 149.18H198.751C213.048 149.18 224.639 137.591 224.639 123.293C224.639 108.997 213.048 97.4133 198.751 97.4133" fill="white"/>
</svg>
