<svg viewBox="0 0 233 143" fill="none" >
<path d="M202.812 82.4133C202.7 82.4133 202.597 82.44 202.487 82.44C204.543 77.68 205.695 72.44 205.695 66.9333C205.695 45.32 188.176 27.8133 166.567 27.8133C158.929 27.8133 151.827 30.0266 145.804 33.8133C137.657 14.0133 118.196 0.0533752 95.4573 0.0533752C65.3893 0.0533752 41.0159 24.44 41.0159 54.5066C41.0159 56.7733 41.1999 59 41.4706 61.2C41.3173 61.2 41.1692 61.1733 41.0159 61.1733C20.8572 61.1733 4.51392 77.52 4.51392 97.6786C4.51392 117.837 20.8572 134.18 41.0159 134.18H202.812C217.109 134.18 228.699 122.591 228.699 108.293C228.699 93.9973 217.109 82.4133 202.812 82.4133Z" fill="white"/>
<defs>
<filter id="filter0_d_7_258" x="0.513916" y="0.0533447" width="232.185" height="142.127" filterUnits="userSpaceOnUse" color-interpolation-filters="sRGB">
<feFlood flood-opacity="0" result="BackgroundImageFix"/>
<feColorMatrix in="SourceAlpha" type="matrix" values="0 0 0 0 0 0 0 0 0 0 0 0 0 0 0 0 0 0 127 0" result="hardAlpha"/>
<feOffset dy="4"/>
<feGaussianBlur stdDeviation="2"/>
<feComposite in2="hardAlpha" operator="out"/>
<feColorMatrix type="matrix" values="0 0 0 0 0 0 0 0 0 0 0 0 0 0 0 0 0 0 0.25 0"/>
<feBlend mode="normal" in2="BackgroundImageFix" result="effect1_dropShadow_7_258"/>
<feBlend mode="normal" in="SourceGraphic" in2="effect1_dropShadow_7_258" result="shape"/>
</filter>
</defs>
</svg>
