<svg viewBox="0 0 272 200" fill="none">
<path d="M121.215 86.76C121.215 105.92 105.68 121.453 86.5173 121.453C67.3546 121.453 51.8199 105.92 51.8199 86.76C51.8199 67.6 67.3546 52.0666 86.5173 52.0666C105.68 52.0666 121.215 67.6 121.215 86.76" fill="#FBDB60"/>
<path d="M86.5173 38.8799C84.2199 38.8799 82.3573 37.0133 82.3573 34.72V5.13327C82.3573 2.8266 84.2199 0.973244 86.5173 0.973244C88.8146 0.973244 90.6759 2.8266 90.6759 5.13327V34.72C90.6759 37.0133 88.8146 38.8799 86.5173 38.8799Z" fill="#FBDB60"/>
<path d="M86.5173 172.549C84.2199 172.549 82.3573 170.688 82.3573 168.391V138.8C82.3573 136.493 84.2199 134.64 86.5173 134.64C88.8146 134.64 90.6759 136.493 90.6759 138.8V168.391C90.6759 170.688 88.8146 172.549 86.5173 172.549Z" fill="#FBDB60"/>
<path d="M120.373 52.9067C118.749 51.28 118.749 48.64 120.373 47.0133L141.299 26.0934C142.923 24.4668 145.556 24.4668 147.18 26.0934C148.805 27.7201 148.805 30.3467 147.18 31.9734L126.256 52.9067C124.632 54.52 121.997 54.52 120.373 52.9067" fill="#FBDB60"/>
<path d="M25.8533 147.427C24.2293 145.8 24.2293 143.16 25.8533 141.547L46.7786 120.613C48.4026 118.987 51.0359 118.987 52.6613 120.613C54.2853 122.24 54.2853 124.88 52.6613 126.493L31.7359 147.427C30.1119 149.04 27.4773 149.04 25.8533 147.427Z" fill="#FBDB60"/>
<path d="M134.397 86.7601C134.397 84.4668 136.259 82.6001 138.556 82.6001H168.149C170.445 82.6001 172.308 84.4668 172.308 86.7601C172.308 89.0535 170.445 90.9202 168.149 90.9202H138.556C136.259 90.9202 134.397 89.0535 134.397 86.7601Z" fill="#FBDB60"/>
<path d="M0.725342 86.7601C0.725342 84.4668 2.588 82.6001 4.88534 82.6001H34.4774C36.7747 82.6001 38.6374 84.4668 38.6374 86.7601C38.6374 89.0535 36.7747 90.9202 34.4774 90.9202H4.88534C2.588 90.9202 0.725342 89.0535 0.725342 86.7601Z" fill="#FBDB60"/>
<path d="M120.373 120.613C121.997 118.987 124.632 118.987 126.256 120.613L147.18 141.547C148.805 143.16 148.805 145.8 147.18 147.427C145.556 149.04 142.923 149.04 141.299 147.427L120.373 126.493C118.749 124.88 118.749 122.24 120.373 120.613" fill="#FBDB60"/>
<path d="M25.8533 26.0934C27.4773 24.4668 30.1119 24.4668 31.7359 26.0934L52.6613 47.0133C54.2853 48.64 54.2853 51.28 52.6613 52.9067C51.0359 54.52 48.4026 54.52 46.7786 52.9067L25.8533 31.9734C24.2293 30.3467 24.2293 27.7201 25.8533 26.0934Z" fill="#FBDB60"/>
<path d="M245.5 147.413C245.388 147.413 245.285 147.44 245.173 147.44C247.229 142.68 248.381 137.44 248.381 131.933C248.381 110.32 230.863 92.8133 209.255 92.8133C201.617 92.8133 194.513 95.0266 188.492 98.8133C180.345 79.0133 160.884 65.0534 138.144 65.0534C108.077 65.0534 83.7039 89.44 83.7039 119.507C83.7039 121.773 83.888 124 84.1573 126.2C84.0053 126.2 83.8573 126.173 83.7039 126.173C63.5439 126.173 47.2013 142.52 47.2013 162.679C47.2013 182.837 63.5439 199.18 83.7039 199.18H245.5C259.797 199.18 271.387 187.591 271.387 173.293C271.387 158.997 259.797 147.413 245.5 147.413Z" fill="white"/>
</svg>
