<svg viewBox="0 0 251 139" fill="none">
<path d="M198.988 82.4613C198.876 82.4613 198.773 82.492 198.661 82.4933C200.719 77.7373 201.869 72.4987 201.869 66.988C201.869 45.3787 184.352 27.8613 162.743 27.8613C155.105 27.8613 148.003 30.084 141.979 33.8654C133.833 14.0667 114.371 0.11464 91.6333 0.11464C61.5666 0.11464 37.1933 24.488 37.1933 54.556C37.1933 56.828 37.3746 59.0546 37.6453 61.2533C37.4933 61.252 37.3453 61.2307 37.1933 61.2307C17.032 61.2307 0.690674 77.5733 0.690674 97.7333C0.690674 117.892 17.032 134.235 37.1933 134.235H198.988C213.285 134.235 224.875 122.644 224.875 108.348C224.875 94.0506 213.285 82.4613 198.988 82.4613" fill="white"/>
<path d="M178.863 9.09204H96.1213C93.6427 9.09204 91.6333 7.08272 91.6333 4.60272C91.6333 2.12539 93.6427 0.114698 96.1213 0.114698H178.863C181.343 0.114698 183.352 2.12539 183.352 4.60272C183.352 7.08272 181.343 9.09204 178.863 9.09204" fill="white"/>
<path d="M245.833 9.09204H197.824C195.345 9.09204 193.335 7.08272 193.335 4.60272C193.335 2.12539 195.345 0.114698 197.824 0.114698H245.833C248.312 0.114698 250.321 2.12539 250.321 4.60272C250.321 7.08272 248.312 9.09204 245.833 9.09204Z" fill="white"/>
<path d="M212.84 36.8453H163.341C160.861 36.8453 158.852 34.836 158.852 32.3574C158.852 29.8774 160.861 27.868 163.341 27.868H212.84C215.319 27.868 217.328 29.8774 217.328 32.3574C217.328 34.836 215.319 36.8453 212.84 36.8453Z" fill="white"/>
<path d="M245.584 36.8453H232.455C229.975 36.8453 227.965 34.836 227.965 32.3574C227.965 29.8774 229.975 27.868 232.455 27.868H245.584C248.063 27.868 250.073 29.8774 250.073 32.3574C250.073 34.836 248.063 36.8453 245.584 36.8453Z" fill="white"/>
<path d="M245.584 91.1307H163.341C160.861 91.1307 158.852 89.12 158.852 86.64C158.852 84.1613 160.861 82.152 163.341 82.152H245.584C248.063 82.152 250.073 84.1613 250.073 86.64C250.073 89.12 248.063 91.1307 245.584 91.1307Z" fill="white"/>
<path d="M245.584 138.235H163.341C160.861 138.235 158.852 136.225 158.852 133.747C158.852 131.267 160.861 129.256 163.341 129.256H245.584C248.063 129.256 250.073 131.267 250.073 133.747C250.073 136.225 248.063 138.235 245.584 138.235Z" fill="white"/>
</svg>
