<svg viewBox="0 0 271 272" fill="none">
<path d="M120.489 85.7867C120.489 104.947 104.955 120.48 85.7919 120.48C66.6293 120.48 51.0946 104.947 51.0946 85.7867C51.0946 66.6267 66.6293 51.0934 85.7919 51.0934C104.955 51.0934 120.489 66.6267 120.489 85.7867" fill="#FBDB60"/>
<path d="M85.7919 37.9066C83.4946 37.9066 81.632 36.0401 81.632 33.7467V4.16C81.632 1.85334 83.4946 -2.21547e-05 85.7919 -2.21547e-05C88.0893 -2.21547e-05 89.9506 1.85334 89.9506 4.16V33.7467C89.9506 36.0401 88.0893 37.9066 85.7919 37.9066Z" fill="#FBDB60"/>
<path d="M85.7919 171.576C83.4946 171.576 81.632 169.715 81.632 167.417V137.827C81.632 135.52 83.4946 133.667 85.7919 133.667C88.0893 133.667 89.9506 135.52 89.9506 137.827V167.417C89.9506 169.715 88.0893 171.576 85.7919 171.576Z" fill="#FBDB60"/>
<path d="M119.648 51.9334C118.024 50.3068 118.024 47.6667 119.648 46.0401L140.573 25.1202C142.197 23.4935 144.831 23.4935 146.455 25.1202C148.08 26.7468 148.08 29.3734 146.455 31.0001L125.531 51.9334C123.907 53.5468 121.272 53.5468 119.648 51.9334" fill="#FBDB60"/>
<path d="M25.1279 146.453C23.5039 144.827 23.5039 142.187 25.1279 140.573L46.0533 119.64C47.6773 118.013 50.3106 118.013 51.9359 119.64C53.5599 121.267 53.5599 123.907 51.9359 125.52L31.0106 146.453C29.3866 148.067 26.7519 148.067 25.1279 146.453Z" fill="#FBDB60"/>
<path d="M133.672 85.7869C133.672 83.4935 135.533 81.6268 137.831 81.6268H167.424C169.72 81.6268 171.583 83.4935 171.583 85.7869C171.583 88.0802 169.72 89.9469 167.424 89.9469H137.831C135.533 89.9469 133.672 88.0802 133.672 85.7869Z" fill="#FBDB60"/>
<path d="M0 85.7869C0 83.4935 1.86266 81.6268 4.15999 81.6268H33.752C36.0493 81.6268 37.912 83.4935 37.912 85.7869C37.912 88.0802 36.0493 89.9469 33.752 89.9469H4.15999C1.86266 89.9469 0 88.0802 0 85.7869Z" fill="#FBDB60"/>
<path d="M119.648 119.64C121.272 118.013 123.907 118.013 125.531 119.64L146.455 140.573C148.08 142.187 148.08 144.827 146.455 146.453C144.831 148.067 142.197 148.067 140.573 146.453L119.648 125.52C118.024 123.907 118.024 121.267 119.648 119.64" fill="#FBDB60"/>
<path d="M25.1279 25.1202C26.7519 23.4935 29.3866 23.4935 31.0106 25.1202L51.9359 46.0401C53.5599 47.6667 53.5599 50.3068 51.9359 51.9334C50.3106 53.5468 47.6773 53.5468 46.0533 51.9334L25.1279 31.0001C23.5039 29.3734 23.5039 26.7468 25.1279 25.1202Z" fill="#FBDB60"/>
<path d="M244.775 146.44C244.663 146.44 244.56 146.467 244.448 146.467C246.504 141.707 247.656 136.467 247.656 130.96C247.656 109.347 230.137 91.84 208.529 91.84C200.892 91.84 193.788 94.0533 187.767 97.84C179.62 78.04 160.159 64.0801 137.419 64.0801C107.352 64.0801 82.9786 88.4667 82.9786 118.533C82.9786 120.8 83.1626 123.027 83.432 125.227C83.28 125.227 83.1319 125.2 82.9786 125.2C62.8186 125.2 46.476 141.547 46.476 161.705C46.476 181.864 62.8186 198.207 82.9786 198.207H244.775C259.072 198.207 270.661 186.617 270.661 172.32C270.661 158.024 259.072 146.44 244.775 146.44Z" fill="white"/>
<path d="M124.948 260.811C120.55 269.959 109.569 273.811 100.421 269.413C91.273 265.016 87.421 254.035 91.8184 244.887C96.217 235.739 124.653 219 124.653 219C124.653 219 129.345 251.663 124.948 260.811" fill="#C2D9F2"/>
<path d="M170.648 260.811C166.252 269.959 155.27 273.811 146.122 269.413C136.973 265.016 133.122 254.035 137.52 244.887C141.918 235.739 170.354 219 170.354 219C170.354 219 175.046 251.663 170.648 260.811" fill="#C2D9F2"/>
<path d="M216.994 260.811C212.597 269.959 201.616 273.811 192.468 269.413C183.32 265.016 179.469 254.035 183.865 244.887C188.264 235.739 216.7 219 216.7 219C216.7 219 221.392 251.663 216.994 260.811" fill="#C2D9F2"/>
</svg>
