<svg viewBox="0 0 225 210">
<path d="M198.812 83.3387C198.7 83.3387 198.597 83.3693 198.487 83.3707C200.543 78.6147 201.695 73.3761 201.695 67.8654C201.695 46.2561 184.176 28.7373 162.567 28.7373C154.929 28.7373 147.827 30.96 141.804 34.744C133.657 14.944 114.196 0.992021 91.4573 0.992021C61.3893 0.992021 37.0159 25.3654 37.0159 55.4334C37.0159 57.7054 37.1999 59.932 37.4706 62.1307C37.3173 62.1294 37.1692 62.108 37.0159 62.108C16.8573 62.108 0.513916 78.4507 0.513916 98.6107C0.513916 118.769 16.8573 135.112 37.0159 135.112H198.812C213.109 135.112 224.699 123.523 224.699 109.225C224.699 94.928 213.109 83.3387 198.812 83.3387" fill="white"/>
<path d="M72.2519 198.892C67.8546 208.04 56.8732 211.892 47.7252 207.495C38.5772 203.097 34.7252 192.116 39.1226 182.968C43.5212 173.82 71.9572 157.081 71.9572 157.081C71.9572 157.081 76.6492 189.744 72.2519 198.892" fill="#C2D9F2"/>
<path d="M117.952 198.892C113.556 208.04 102.575 211.892 93.4266 207.495C84.2773 203.097 80.4266 192.116 84.824 182.968C89.2226 173.82 117.659 157.081 117.659 157.081C117.659 157.081 122.351 189.744 117.952 198.892" fill="#C2D9F2"/>
<path d="M164.299 198.892C159.901 208.04 148.92 211.892 139.772 207.495C130.624 203.097 126.773 192.116 131.169 182.968C135.568 173.82 164.004 157.081 164.004 157.081C164.004 157.081 168.696 189.744 164.299 198.892" fill="#C2D9F2"/>
</svg>
