<svg viewBox="0 0 225 263" fill="none">
<path d="M174.947 82.8813C181.211 82.8813 187.112 81.2867 192.261 78.472C183.74 87.6547 171.561 93.3879 158.059 93.3879C132.272 93.3879 111.364 72.4786 111.364 46.6933C111.364 20.9066 132.272 -1.07097e-05 158.059 -1.07097e-05C171.561 -1.07097e-05 183.74 5.7333 192.261 14.9146C187.112 12.1013 181.211 10.5053 174.947 10.5053C154.957 10.5053 138.759 26.7053 138.759 46.6933C138.759 66.6813 154.957 82.8813 174.947 82.8813" fill="#FBDB60"/>
<path d="M198.297 139.004C198.185 139.004 198.084 139.035 197.972 139.036C200.028 134.28 201.18 129.041 201.18 123.531C201.18 101.921 183.661 84.4039 162.052 84.4039C154.415 84.4039 147.312 86.6266 141.289 90.408C133.143 70.6093 113.681 56.6572 90.9426 56.6572C60.876 56.6572 36.5027 81.0306 36.5027 111.099C36.5027 113.371 36.6853 115.597 36.956 117.796C36.8027 117.795 36.6547 117.773 36.5027 117.773C16.3427 117.773 0 134.116 0 154.276C0 174.435 16.3427 190.777 36.5027 190.777H198.297C212.595 190.777 224.185 179.187 224.185 164.891C224.185 150.593 212.595 139.004 198.297 139.004" fill="white"/>
<path d="M75.288 252.435C70.8907 261.583 59.9093 265.435 50.7613 261.037C41.6133 256.64 37.7614 245.659 42.1587 236.511C46.5574 227.363 74.9934 210.624 74.9934 210.624C74.9934 210.624 79.6854 243.287 75.288 252.435" fill="#C2D9F2"/>
<path d="M120.988 252.435C116.592 261.583 105.611 265.435 96.4627 261.037C87.3134 256.64 83.4628 245.659 87.8601 236.511C92.2588 227.363 120.695 210.624 120.695 210.624C120.695 210.624 125.387 243.287 120.988 252.435" fill="#C2D9F2"/>
<path d="M167.335 252.435C162.937 261.583 151.956 265.435 142.808 261.037C133.66 256.64 129.809 245.659 134.205 236.511C138.604 227.363 167.04 210.624 167.04 210.624C167.04 210.624 171.732 243.287 167.335 252.435" fill="#C2D9F2"/>
</svg>
