<svg viewBox="0 0 206 205" fill="none">
<path d="M106.001 204.813H100.111C96.7373 204.813 94.0012 202.08 94.0012 198.707V6.23201C94.0012 2.85868 96.7373 0.12267 100.111 0.12267H106.001C109.376 0.12267 112.111 2.85868 112.111 6.23201V198.707C112.111 202.08 109.376 204.813 106.001 204.813" fill="#A3D5EB"/>
<path d="M138.661 14.996C141.047 17.3813 141.048 21.2493 138.663 23.636L103.217 59.1L103.08 58.9387L102.917 59.1L67.456 23.6387C65.0693 21.2507 65.0707 17.38 67.46 14.9947L71.6267 10.836C74.0133 8.45334 77.88 8.45468 80.264 10.84L98.7573 29.332C101.144 31.7187 105.013 31.7187 107.4 29.3307L125.868 10.8467C128.253 8.45869 132.124 8.45869 134.511 10.8454L138.661 14.996" fill="#A3D5EB"/>
<path d="M67.4506 189.947C65.0653 187.56 65.0653 183.693 67.4493 181.307L102.895 145.84L103.033 146L103.195 145.84L138.656 181.293C141.044 183.693 141.043 187.56 138.652 189.947L134.485 194.107C132.099 196.48 128.233 196.48 125.849 194.093L107.356 175.613C104.969 173.227 101.099 173.227 98.7133 175.613L80.2453 194.093C77.86 196.48 73.9893 196.48 71.6027 194.093L67.4506 189.947" fill="#A3D5EB"/>
<path d="M0.709351 105.413V99.52C0.709351 96.1467 3.44399 93.4133 6.81999 93.4133H199.293C202.668 93.4133 205.404 96.1467 205.404 99.52V105.413C205.404 108.787 202.668 111.52 199.293 111.52H6.81999C3.44399 111.52 0.709351 108.787 0.709351 105.413Z" fill="#A3D5EB"/>
<path d="M190.529 138.08C188.144 140.453 184.277 140.467 181.889 138.08L146.425 102.627L146.587 102.493L146.425 102.333L181.887 66.8694C184.275 64.4814 188.145 64.4827 190.531 66.8734L194.691 71.04C197.073 73.4267 197.071 77.2934 194.687 79.68L176.193 98.1734C173.807 100.56 173.807 104.427 176.195 106.813L194.679 125.28C197.067 127.667 197.068 131.533 194.681 133.92L190.529 138.08" fill="#A3D5EB"/>
<path d="M15.5826 66.864C17.968 64.4787 21.8359 64.4774 24.2226 66.8627L59.688 102.307L59.5266 102.44L59.688 102.613L24.2266 138.067C21.8386 140.453 17.9666 140.453 15.5813 138.067L11.4226 133.893C9.03993 131.507 9.04127 127.64 11.4266 125.267L29.9186 106.773C32.3053 104.387 32.3053 100.507 29.9173 98.12L11.4333 79.6534C9.04527 77.2667 9.04527 73.4 11.4319 71.016L15.5826 66.864" fill="#A3D5EB"/>
<path d="M54.1733 151.36L54.164 151.347C51.7774 148.96 51.7774 145.093 54.164 142.707L143.299 53.5774C145.685 51.1907 149.553 51.1907 151.94 53.5774L151.949 53.5853C154.335 55.972 154.335 59.8414 151.949 62.2267L62.8134 151.36C60.428 153.747 56.5587 153.747 54.1733 151.36Z" fill="#A3D5EB"/>
<path d="M161.847 75.7067C161.847 79.08 159.112 81.8267 155.739 81.8267H123.849L123.861 81.6933H123.707V49.7947C123.707 46.4173 126.445 43.6813 129.821 43.684H129.833C133.205 43.688 135.939 46.4213 135.939 49.7947V63.4973C135.939 66.872 138.675 69.608 142.051 69.6067L155.735 69.6013C159.111 69.6 161.847 72.336 161.847 75.7067Z" fill="#A3D5EB"/>
<path d="M44.2654 129.227C44.2654 125.853 47 123.12 50.3733 123.12L82.2627 123.107L82.252 123.253H82.4067V155.147C82.4067 158.52 79.6667 161.253 76.2907 161.253H76.2787C72.9067 161.253 70.1747 158.52 70.1747 155.147V141.44C70.1747 138.067 67.4373 135.333 64.0613 135.333H50.3787C47.0027 135.333 44.2654 132.6 44.2654 129.227" fill="#A3D5EB"/>
<path d="M54.164 53.5853L54.1733 53.5774C56.5587 51.1907 60.428 51.1907 62.8134 53.5774L151.949 142.707C154.335 145.093 154.335 148.96 151.949 151.347L151.94 151.36C149.553 153.747 145.685 153.747 143.299 151.36L54.164 62.2267C51.7774 59.8414 51.7774 55.972 54.164 53.5853" fill="#A3D5EB"/>
<path d="M129.815 161.267C126.441 161.267 123.705 158.52 123.704 155.147L123.695 123.267L123.839 123.28V123.12H155.732C159.108 123.12 161.845 125.853 161.841 129.24C161.839 132.613 159.104 135.347 155.732 135.347H142.028C138.653 135.347 135.917 138.093 135.919 141.467L135.924 155.147C135.925 158.52 133.191 161.267 129.815 161.267" fill="#A3D5EB"/>
<path d="M76.2987 43.6787C79.672 43.6787 82.408 46.4133 82.408 49.7867L82.4173 81.68L82.2747 81.6667V81.8134H50.3813C47.004 81.8134 44.268 79.08 44.2706 75.7067V75.6934C44.2746 72.32 47.008 69.5867 50.3813 69.5867H64.084C67.46 69.5867 70.1947 66.8507 70.1947 63.4747L70.188 49.792C70.1867 46.416 72.9227 43.6787 76.2987 43.6787" fill="#A3D5EB"/>
</svg>
