<svg viewBox="0 0 226 237" fill="none">
<path d="M199.261 83.3387C199.149 83.3387 199.048 83.3693 198.936 83.3707C200.992 78.6147 202.144 73.3761 202.144 67.8654C202.144 46.2561 184.625 28.7373 163.016 28.7373C155.379 28.7373 148.276 30.96 142.253 34.744C134.107 14.944 114.645 0.992021 91.9066 0.992021C61.84 0.992021 37.4667 25.3654 37.4667 55.4334C37.4667 57.7054 37.6493 59.932 37.92 62.1307C37.7666 62.1294 37.6187 62.108 37.4667 62.108C17.3067 62.108 0.963989 78.4507 0.963989 98.6107C0.963989 118.769 17.3067 135.112 37.4667 135.112H199.261C213.559 135.112 225.149 123.523 225.149 109.225C225.149 94.928 213.559 83.3387 199.261 83.3387" fill="#C2D9F2"/>
<path d="M100.848 150.755L86.8333 193.433H106.156L93.6279 236.749L139.279 175.597H115.711L124.628 150.755H100.848Z" fill="#FBDB60"/>
</svg>
