<svg viewBox="0 0 204 203" fill="none">
<path d="M142.84 101.12C142.84 123.703 124.533 142.009 101.96 142.009C79.3733 142.009 61.0667 123.703 61.0667 101.12C61.0667 78.5334 79.3733 60.2267 101.96 60.2267C124.533 60.2267 142.84 78.5334 142.84 101.12Z" fill="#F6C833"/>
<path d="M101.96 44.6934C99.2533 44.6934 97.0533 42.5067 97.0533 39.8V4.92005C97.0533 2.21339 99.2533 0.0266954 101.96 0.0266954C104.667 0.0266954 106.853 2.21339 106.853 4.92005V39.8C106.853 42.5067 104.667 44.6934 101.96 44.6934Z" fill="#F6C833"/>
<path d="M101.96 202.219C99.2533 202.219 97.0533 200.024 97.0533 197.317V162.445C97.0533 159.739 99.2533 157.544 101.96 157.544C104.667 157.544 106.853 159.739 106.853 162.445V197.317C106.853 200.024 104.667 202.219 101.96 202.219Z" fill="#F6C833"/>
<path d="M141.853 61.2266C139.933 59.3066 139.933 56.2 141.853 54.2933L166.507 29.6266C168.427 27.72 171.533 27.72 173.44 29.6266C175.36 31.5466 175.36 34.6533 173.44 36.56L148.787 61.2266C146.867 63.1333 143.773 63.1333 141.853 61.2266Z" fill="#F6C833"/>
<path d="M30.4693 172.608C28.5547 170.693 28.5547 167.589 30.4693 165.676L55.1267 141.017C57.0401 139.104 60.1441 139.104 62.0588 141.017C63.9721 142.932 63.9721 146.035 62.0588 147.949L37.4001 172.608C35.4854 174.523 32.3827 174.523 30.4693 172.608Z" fill="#F6C833"/>
<path d="M158.373 101.12C158.373 98.4134 160.573 96.2133 163.28 96.2133H198.147C200.853 96.2133 203.053 98.4134 203.053 101.12C203.053 103.827 200.853 106.027 198.147 106.027H163.28C160.573 106.027 158.373 103.827 158.373 101.12Z" fill="#F6C833"/>
<path d="M0.857178 101.12C0.857178 98.4134 3.05194 96.2133 5.75861 96.2133H40.6319C43.3386 96.2133 45.5319 98.4134 45.5319 101.12C45.5319 103.827 43.3386 106.027 40.6319 106.027H5.75861C3.05194 106.027 0.857178 103.827 0.857178 101.12Z" fill="#F6C833"/>
<path d="M141.853 141.017C143.773 139.104 146.867 139.104 148.787 141.017L173.44 165.676C175.36 167.589 175.36 170.693 173.44 172.608C171.533 174.523 168.427 174.523 166.507 172.608L141.853 147.949C139.933 146.035 139.933 142.932 141.853 141.017Z" fill="#F6C833"/>
<path d="M30.4693 29.6266C32.3827 27.72 35.4854 27.72 37.4001 29.6266L62.0588 54.2933C63.9721 56.2 63.9721 59.3066 62.0588 61.2266C60.1441 63.1333 57.0401 63.1333 55.1267 61.2266L30.4693 36.56C28.5547 34.6533 28.5547 31.5466 30.4693 29.6266Z" fill="#F6C833"/>
</svg>
